<svg width="20" height="20" viewBox="0 0 20 20" fill="none" xmlns="http://www.w3.org/2000/svg">
<path d="M3.96077 16.0392C2.68582 14.7643 2.68582 12.6916 3.96077 11.4166L6.9431 8.43427L5.52649 7.01766L2.54416 10C1.55545 10.9887 1 12.3297 1 13.7279C1 15.1262 1.55545 16.4671 2.54416 17.4558C3.53286 18.4445 4.87384 19 6.27208 19C7.67032 19 9.01129 18.4445 10 17.4558L12.9823 14.4735L11.5657 13.0569L8.58339 16.0392C7.30844 17.3142 5.23572 17.3142 3.96077 16.0392ZM7.76325 13.7279L13.7279 7.76325L12.2368 6.27208L6.27208 12.2368L7.76325 13.7279ZM10 2.54416L7.01766 5.52649L8.43427 6.9431L11.4166 3.96077C12.6916 2.68582 14.7643 2.68582 16.0392 3.96077C17.3142 5.23572 17.3142 7.30844 16.0392 8.58339L13.0569 11.5657L14.4735 12.9823L17.4558 10C18.4445 9.01129 19 7.67032 19 6.27208C19 4.87384 18.4445 3.53286 17.4558 2.54416C16.4671 1.55545 15.1262 1 13.7279 1C12.3297 1 10.9887 1.55545 10 2.54416Z" fill="black"/>
</svg>
