<svg width="20" height="20" viewBox="0 0 20 20" fill="none" xmlns="http://www.w3.org/2000/svg">
<path d="M10.7317 15.8678C10.7317 15.5308 10.7707 15.2037 10.8195 14.8767H1.95122V4.96476L9.7561 9.9207L17.561 4.96476V10.0099C18.2634 10.1289 18.9171 10.3767 19.5122 10.7236V2.98238C19.5122 1.89207 18.6341 1 17.561 1H1.95122C0.878049 1 0 1.89207 0 2.98238V14.8767C0 15.967 0.878049 16.859 1.95122 16.859H10.8195C10.7707 16.5319 10.7317 16.2048 10.7317 15.8678ZM17.561 2.98238L9.7561 7.93833L1.95122 2.98238H17.561ZM15.3659 19L12.6829 16.0264L13.8146 14.8767L15.3659 16.4526L18.8683 12.8943L20 14.2919L15.3659 19Z" fill="black"/>
</svg>
