<svg width="40" height="40" viewBox="0 0 40 40" fill="none" xmlns="http://www.w3.org/2000/svg">
<path d="M25.4 10C23.312 10 21.308 10.9711 20 12.4937C18.692 10.9711 16.688 10 14.6 10C10.904 10 8 12.8894 8 16.594C8 21.1139 12.08 24.8185 18.26 30.4174L20 32L21.74 30.4174C27.92 24.8185 32 21.1139 32 16.594C32 12.8894 29.096 10 25.4 10Z" fill="black" fill-opacity="0.7"/>
<path d="M20.12 28.643L20 28.7629L19.868 28.643C14.168 23.4757 10.4 20.0589 10.4 16.594C10.4 14.1962 12.2 12.3978 14.6 12.3978C16.448 12.3978 18.248 13.5967 18.884 15.2272H21.116C21.752 13.5967 23.552 12.3978 25.4 12.3978C27.8 12.3978 29.6 14.1962 29.6 16.594C29.6 20.0589 25.832 23.4757 20.12 28.643ZM25.4 10C23.312 10 21.308 10.9711 20 12.4937C18.692 10.9711 16.688 10 14.6 10C10.904 10 8 12.8894 8 16.594C8 21.1139 12.08 24.8185 18.26 30.4174L20 32L21.74 30.4174C27.92 24.8185 32 21.1139 32 16.594C32 12.8894 29.096 10 25.4 10Z" fill="white"/>
</svg>
