<svg width="32" height="30" viewBox="0 0 32 30" fill="none" xmlns="http://www.w3.org/2000/svg">
<g clip-path="url(#clip0_19_33)">
<path fill-rule="evenodd" clip-rule="evenodd" d="M32 14.9919L28.4305 18.9952L28.9258 24.2718L23.6645 25.4482L20.926 29.9838L16.0024 27.9025L11.0741 30L8.33233 25.4589L3.07169 24.2826L3.56658 18.9956L0 14.9955L3.56658 10.981L3.07039 5.69437L8.33471 4.53163L11.0708 0L15.9984 2.08292L20.926 2.38385e-07L23.6645 4.53557L28.9258 5.71199L28.4305 10.9886L32 14.9919Z" fill="black"/>
<path fill-rule="evenodd" clip-rule="evenodd" d="M32 14.9919L28.4305 18.9952L28.9258 24.2718L23.6645 25.4482L20.926 29.9838L16.0024 27.9025L11.0741 30L8.33233 25.4589L3.07169 24.2826L3.56658 18.9956L0 14.9955L3.56658 10.981L3.07039 5.69437L8.33471 4.53163L11.0708 0L15.9984 2.08292L20.926 2.38385e-07L23.6645 4.53557L28.9258 5.71199L28.4305 10.9886L32 14.9919ZM25.6956 8.06321L21.7622 7.18372L19.7029 3.77302L15.9984 5.33894L12.2939 3.77302L10.2346 7.18372L6.30123 8.05249L6.67168 11.9995L4.01313 14.9919L6.67168 17.9736L6.30123 21.9313L10.2346 22.8108L12.2939 26.2215L15.9984 24.6448L19.7029 26.2107L21.7622 22.8L25.6956 21.9205L25.3251 17.9736L27.9837 14.9919L25.3251 12.0102L25.6956 8.06321ZM13.8193 20.3546L22.5358 11.7742L20.9995 10.2512L13.8193 17.3193L10.9973 14.5521L9.46098 16.0644L13.8193 20.3546Z" fill="white"/>
</g>
<defs>
<clipPath id="clip0_19_33">
<rect width="32" height="30" fill="white"/>
</clipPath>
</defs>
</svg>
